<?xml version="1.0" standalone="no"?>
<!DOCTYPE svg PUBLIC "-//W3C//DTD SVG 20010904//EN"
 "http://www.w3.org/TR/2001/REC-SVG-20010904/DTD/svg10.dtd">
<svg version="1.0" xmlns="http://www.w3.org/2000/svg"
 width="700.000000pt" height="700.000000pt" viewBox="0 0 700.000000 700.000000"
 preserveAspectRatio="xMidYMid meet">
<metadata>
Created by potrace 1.14, written by Peter Selinger 2001-2017
</metadata>
<g transform="translate(0.000000,700.000000) scale(0.100000,-0.100000)"
fill="#000000" stroke="none">
<path d="M1615 5543 c-76 -225 -164 -483 -196 -575 l-58 -168 134 0 133 0 34
103 35 102 216 3 216 2 32 -105 32 -105 134 0 c123 0 134 1 129 18 -3 9 -91
267 -195 572 l-189 555 -159 3 -160 2 -138 -407z m370 -82 c37 -118 69 -220
72 -227 4 -11 -22 -14 -141 -14 -104 0 -146 3 -146 12 0 6 29 104 66 217 80
253 74 235 78 230 2 -2 34 -100 71 -218z"/>
<path d="M4498 5783 l-3 -118 -62 -3 -63 -3 0 -94 0 -94 63 -3 62 -3 5 -255
c5 -249 6 -256 30 -300 49 -87 116 -110 320 -110 l130 0 0 95 0 95 -79 0
c-101 0 -136 12 -150 52 -7 18 -11 114 -11 229 l0 199 130 0 130 0 0 95 0 95
-130 0 -130 0 0 120 0 120 -120 0 -119 0 -3 -117z"/>
<path d="M3715 5674 c-16 -2 -72 -11 -122 -20 l-93 -16 0 -105 c0 -83 3 -103
13 -96 6 6 39 21 72 33 80 31 281 35 332 7 36 -19 63 -63 63 -102 0 -25 0 -25
-88 -25 -130 0 -249 -18 -312 -46 -69 -32 -86 -47 -118 -109 -22 -42 -26 -63
-25 -135 0 -95 14 -138 65 -195 54 -63 99 -80 208 -80 112 0 151 16 218 89 23
25 45 46 47 46 3 0 5 -27 5 -60 l0 -60 126 0 126 0 -4 303 c-4 244 -8 312 -21
352 -35 107 -98 169 -202 201 -49 15 -232 26 -290 18z m265 -516 c0 -78 -41
-152 -101 -183 -15 -8 -51 -15 -78 -15 -42 0 -56 5 -83 29 -29 26 -33 36 -33
79 0 40 5 56 24 76 33 35 68 44 179 45 l92 1 0 -32z"/>
<path d="M5357 5671 c-32 -5 -85 -14 -117 -21 l-60 -13 0 -99 c0 -92 1 -99 18
-93 111 49 265 69 351 45 59 -16 101 -58 101 -103 l0 -34 -142 -6 c-190 -9
-269 -31 -332 -93 -52 -53 -61 -80 -61 -194 0 -97 2 -109 28 -153 54 -91 144
-133 265 -125 83 6 142 35 200 97 l42 46 0 -63 0 -62 126 0 125 0 -3 313 c-3
301 -4 314 -27 371 -52 130 -151 184 -351 191 -58 2 -131 0 -163 -4z m291
-540 c-7 -104 -65 -163 -163 -169 -50 -3 -65 0 -87 17 -36 29 -51 82 -35 129
19 58 76 82 195 82 l94 0 -4 -59z"/>
<path d="M6564 5662 c-61 -21 -97 -49 -138 -104 l-31 -43 -3 73 -3 72 -124 0
-125 0 0 -430 0 -430 124 0 124 0 4 248 c4 269 8 294 66 356 52 55 144 72 231
41 l41 -14 0 118 c0 115 -1 119 -22 125 -40 10 -91 6 -144 -12z"/>
<path d="M2451 5653 c0 -5 69 -197 152 -428 l152 -420 139 0 138 0 154 425
c84 234 154 426 154 428 0 1 -55 2 -123 2 l-122 0 -98 -295 c-54 -162 -102
-293 -105 -291 -4 2 -50 135 -102 295 l-95 290 -122 1 c-68 0 -123 -3 -122 -7z"/>
<path d="M4587 4482 c-15 -17 -17 -68 -17 -523 0 -440 -2 -507 -16 -527 -16
-24 -44 -28 -75 -12 -18 10 -19 23 -19 166 0 85 -4 164 -10 174 -5 10 -24 23
-41 29 -41 14 -96 -8 -104 -42 -4 -13 -5 -123 -3 -243 l3 -219 135 -223 c148
-245 163 -262 245 -262 25 0 45 -4 43 -9 -1 -4 -115 -157 -253 -339 -154 -204
-253 -326 -257 -319 -4 7 -8 57 -8 112 0 92 -3 104 -29 150 -73 127 -182 191
-377 222 -42 7 -123 -44 -169 -107 -77 -105 -115 -206 -235 -635 -77 -276
-146 -397 -261 -460 -44 -24 -64 -28 -123 -28 -48 0 -86 7 -116 21 -119 52
-214 214 -280 475 -110 431 -196 644 -282 697 -101 62 -344 -15 -453 -143 -78
-91 -75 -64 -75 -615 0 -391 3 -499 14 -525 20 -49 78 -95 128 -102 24 -3 516
-5 1093 -3 1038 3 1050 3 1085 24 19 11 45 35 57 54 21 30 23 44 23 171 l0
139 34 14 c26 11 118 126 456 572 233 308 430 576 438 596 l14 37 139 3 138 3
36 35 c19 19 40 50 45 70 6 20 10 218 10 478 l0 443 -25 24 c-30 31 -73 32
-109 4 -21 -16 -26 -29 -26 -63 0 -47 -22 -76 -57 -76 -39 0 -53 31 -53 113 0
67 -3 78 -22 91 -12 9 -36 16 -53 16 -17 0 -41 -7 -53 -16 -19 -13 -22 -24
-22 -90 0 -80 -18 -114 -59 -114 -43 0 -51 24 -51 150 0 116 -1 119 -26 139
-36 28 -79 27 -109 -4 -24 -23 -25 -30 -25 -138 0 -98 -3 -116 -18 -130 -25
-22 -48 -21 -72 3 -19 19 -20 33 -20 374 0 400 3 386 -74 386 -29 0 -48 -6
-59 -18z"/>
<path d="M2914 4430 c-383 -69 -663 -456 -667 -920 -2 -259 65 -466 210 -658
297 -390 829 -389 1130 3 101 132 185 340 200 498 4 49 15 88 35 125 50 95 36
217 -33 288 -17 18 -41 61 -53 96 -97 275 -308 490 -546 553 -71 19 -211 27
-276 15z m883 -822 c-3 -7 -5 -2 -5 12 0 14 2 19 5 13 2 -7 2 -19 0 -25z"/>
</g>
</svg>
