<?xml version="1.0" encoding="UTF-8" standalone="no" ?>
<!DOCTYPE svg PUBLIC "-//W3C//DTD SVG 1.1//EN" "http://www.w3.org/Graphics/SVG/1.1/DTD/svg11.dtd">
<svg xmlns="http://www.w3.org/2000/svg" xmlns:xlink="http://www.w3.org/1999/xlink" version="1.1" width="1080" height="1080" viewBox="0 0 1080 1080" xml:space="preserve">
<desc>Created with Fabric.js 5.2.4</desc>
<defs>
</defs>
<rect x="0" y="0" width="100%" height="100%" fill="transparent"></rect>
<g transform="matrix(1 0 0 1 540 540)" id="5fb2ecd1-3fee-4b80-8cc2-49c94cc43a72"  >
<rect style="stroke: none; stroke-width: 1; stroke-dasharray: none; stroke-linecap: butt; stroke-dashoffset: 0; stroke-linejoin: miter; stroke-miterlimit: 4; fill: rgb(255,255,255); fill-rule: nonzero; opacity: 1; visibility: hidden;" vector-effect="non-scaling-stroke"  x="-540" y="-540" rx="0" ry="0" width="1080" height="1080" />
</g>
<g transform="matrix(1 0 0 1 540 540)" id="d0cf500d-d665-4924-8060-7813fe3d4fba"  >
</g>
<g transform="matrix(2.13 0 0 2.32 567.84 263.3)" style="" id="35dba34e-f060-4091-af9f-37f7a652df14"  >
		<text xml:space="preserve" font-family="Raleway" font-size="105" font-style="normal" font-weight="900" style="stroke: none; stroke-width: 1; stroke-dasharray: none; stroke-linecap: butt; stroke-dashoffset: 0; stroke-linejoin: miter; stroke-miterlimit: 4; fill: rgb(27,115,219); fill-rule: nonzero; opacity: 1; white-space: pre;" ><tspan x="-168.73" y="32.98" >Avatar</tspan></text>
</g>
<g transform="matrix(3.34 0 0 3.64 757.53 516.63)"  >
<path style="stroke: rgb(0,0,0); stroke-width: 0; stroke-dasharray: none; stroke-linecap: butt; stroke-dashoffset: 0; stroke-linejoin: miter; stroke-miterlimit: 4; fill: rgb(27,115,219); fill-rule: nonzero; opacity: 1;" vector-effect="non-scaling-stroke"  transform=" translate(-50, -50)" d="M 29.366 58.748 C 29.684 59.519 30.39 60.031 31.159 60.159 L 31.993 60.159 C 32.951 60.031 33.72 59.260999999999996 33.976 58.364 L 33.976 16.706 C 33.976 14.59 35.707 13.82 37.504 13.692 C 39.425 13.692 41.607 14.207 41.607 16.706 L 41.607 45.483000000000004 C 41.991 46.316 42.888 46.956 43.912 46.956 C 45.003 46.956 45.899 46.252 46.222 45.227000000000004 L 46.222 36.894000000000005 C 46.222 32.791000000000004 53.848 32.85600000000001 53.848 36.894000000000005 L 53.848 45.547000000000004 C 54.232 46.38 55.062 46.956 56.025 46.956 C 57.178 46.956 58.14 46.187000000000005 58.463 45.097 L 58.463 40.162 C 58.976 36.51 66.024 36.702 66.024 40.612 L 66.024 45.547000000000004 C 66.409 46.38 67.305 46.956 68.267 46.956 C 69.42 46.956 70.321 46.187000000000005 70.639 45.227000000000004 L 70.639 43.176 C 70.639 39.138000000000005 78.265 39.138000000000005 78.265 43.176 L 78.265 79.32300000000001 C 78.265 83.23100000000001 75.125 86.30900000000001 71.217 86.30900000000001 L 38.786 86.30900000000001 C 36.286 86.30900000000001 34.299 84.51400000000001 33.275 82.91100000000002 L 28.209999999999997 75.09300000000002 L 22.508999999999997 66.44000000000001 C 22.058999999999997 65.73600000000002 21.737 64.96700000000001 21.737 61.76100000000001 L 21.737 46.827 C 21.737 42.726 29.368 42.726 29.368 46.827 L 29.368 58.748 z" stroke-linecap="round" />
</g>
<g transform="matrix(6.5 0 0 7.06 464.7 645.55)"  >
<g style="" vector-effect="non-scaling-stroke"   >
		<g transform="matrix(1 0 0 1 0.21 -14.89)"  >
<ellipse style="stroke: none; stroke-width: 1; stroke-dasharray: none; stroke-linecap: butt; stroke-dashoffset: 0; stroke-linejoin: miter; stroke-miterlimit: 4; fill: rgb(27,115,219); fill-rule: nonzero; opacity: 1;" vector-effect="non-scaling-stroke"  cx="0" cy="0" rx="18.519" ry="20.634" />
</g>
		<g transform="matrix(1 0 0 1 0 20.01)"  >
<polygon style="stroke: none; stroke-width: 1; stroke-dasharray: none; stroke-linecap: butt; stroke-dashoffset: 0; stroke-linejoin: miter; stroke-miterlimit: 4; fill: rgb(27,115,219); fill-rule: nonzero; opacity: 1;" vector-effect="non-scaling-stroke"  points="-17.95,-15.45 -17.28,-15.45 -16.87,-15.35 -16.46,-15.19 -16.04,-14.99 -15.68,-14.73 -15.22,-14.37 -14.8,-13.9 -14.34,-13.28 -13.88,-12.61 -13.41,-11.84 -13,-10.91 -12.54,-9.98 -12.12,-8.95 -11.71,-7.81 -11.35,-6.68 -10.99,-5.55 -10.63,-4.31 -10.27,-3.12 -9.9,-1.94 -9.54,-0.7 -9.23,0.49 -8.87,1.67 -8.46,2.81 -8.1,3.95 -7.63,5.03 -7.12,6.17 -6.55,7.19 -5.78,8.28 -4.8,9.36 -3.51,10.34 -1.85,11.01 0,11.27 1.91,11.01 3.56,10.29 4.9,9.31 5.83,8.23 6.55,7.14 7.17,6.06 7.69,4.92 8.1,3.84 8.51,2.66 8.87,1.52 9.23,0.34 9.6,-0.85 9.96,-2.09 10.32,-3.33 10.68,-4.51 11.04,-5.7 11.45,-6.89 11.86,-8.02 12.28,-9.11 12.74,-10.14 13.21,-11.06 13.72,-11.94 14.19,-12.72 14.7,-13.39 15.22,-13.95 15.68,-14.42 16.15,-14.73 16.66,-15.04 17.13,-15.24 17.69,-15.4 18.31,-15.45 19.24,-15.5 19.86,-15.45 20.38,-15.4 20.89,-15.35 21.41,-15.24 21.87,-15.14 22.39,-15.04 22.85,-14.88 23.27,-14.68 23.73,-14.52 24.14,-14.32 24.55,-14.06 24.92,-13.85 25.28,-13.59 25.64,-13.33 26,-13.03 26.31,-12.77 26.62,-12.46 26.88,-12.15 27.13,-11.84 27.39,-11.53 27.6,-11.22 27.81,-10.91 28.01,-10.65 28.16,-10.34 28.27,-10.09 28.37,-9.78 28.48,-9.57 28.53,-9.31 28.58,-9.16 28.63,-8.95 28.63,-8.85 28.63,-8.64 28.63,11.73 28.63,12.2 28.58,12.56 28.48,12.92 28.37,13.23 28.22,13.54 28.01,13.85 27.81,14.11 27.55,14.37 27.24,14.62 26.93,14.88 26.62,15.04 26.26,15.19 25.9,15.34 25.53,15.45 25.12,15.5 24.61,15.5 -24.61,15.5 -25.12,15.5 -25.48,15.45 -25.9,15.34 -26.26,15.19 -26.62,15.04 -26.93,14.88 -27.24,14.62 -27.5,14.37 -27.75,14.11 -27.96,13.85 -28.16,13.54 -28.32,13.23 -28.42,12.92 -28.53,12.56 -28.58,12.2 -28.63,11.73 -28.63,-8.64 -28.63,-8.8 -28.58,-8.85 -28.58,-9 -28.53,-9.16 -28.47,-9.36 -28.37,-9.57 -28.27,-9.83 -28.11,-10.09 -27.91,-10.4 -27.7,-10.7 -27.5,-11.01 -27.24,-11.32 -26.93,-11.63 -26.62,-11.94 -26.31,-12.25 -25.95,-12.56 -25.59,-12.87 -25.17,-13.18 -24.76,-13.44 -24.3,-13.7 -23.83,-13.95 -23.37,-14.21 -22.9,-14.42 -22.39,-14.62 -21.87,-14.83 -21.3,-14.99 -20.79,-15.14 -20.22,-15.24 -19.66,-15.35 -19.03,-15.4 -18.47,-15.45 " />
</g>
</g>
</g>
<g transform="matrix(2.13 0 0 2.32 513.24 528.39)" style="" id="3efa5265-8777-4ed1-978a-f4bef3fa015b"  >
		<text xml:space="preserve" font-family="Lato" font-size="40" font-style="normal" font-weight="400" style="stroke: none; stroke-width: 1; stroke-dasharray: none; stroke-linecap: butt; stroke-dashoffset: 0; stroke-linejoin: miter; stroke-miterlimit: 4; fill: rgb(0,0,0); fill-rule: nonzero; opacity: 1; white-space: pre;" ><tspan x="-38.86" y="12.57" >O-O</tspan></text>
</g>
<g transform="matrix(2.13 0 0 2.32 372.55 512.67)" style="" id="1850a53e-4d8c-49ab-a639-7d87a49caa1e"  >
		<text xml:space="preserve" font-family="Lato" font-size="40" font-style="normal" font-weight="400" style="stroke: none; stroke-width: 1; stroke-dasharray: none; stroke-linecap: butt; stroke-dashoffset: 0; stroke-linejoin: miter; stroke-miterlimit: 4; fill: rgb(0,0,0); fill-rule: nonzero; opacity: 1; white-space: pre;" ><tspan x="-9.34" y="12.57" >c</tspan></text>
</g>
<g transform="matrix(2.13 0 0 2.32 495.7 633.74)" style="" id="ab02ad33-f1f1-49cf-bcfb-489871f4e7e6"  >
		<text xml:space="preserve" font-family="Lato" font-size="40" font-style="normal" font-weight="400" style="stroke: none; stroke-width: 1; stroke-dasharray: none; stroke-linecap: butt; stroke-dashoffset: 0; stroke-linejoin: miter; stroke-miterlimit: 4; fill: rgb(0,0,0); fill-rule: nonzero; opacity: 1; white-space: pre;" ><tspan x="-20.82" y="12.57" >---</tspan></text>
</g>
<g transform="matrix(2.13 0 0 2.32 517.77 569.36)" style="" id="c89ac0ec-ef77-47a8-8a83-2905b887e739"  >
		<text xml:space="preserve" font-family="Lato" font-size="40" font-style="normal" font-weight="400" style="stroke: none; stroke-width: 1; stroke-dasharray: none; stroke-linecap: butt; stroke-dashoffset: 0; stroke-linejoin: miter; stroke-miterlimit: 4; fill: rgb(0,0,0); fill-rule: nonzero; opacity: 1; white-space: pre;" ><tspan x="-8.88" y="12.57" >J</tspan></text>
</g>
<g transform="matrix(NaN NaN NaN NaN 0 0)"  >
<g style=""   >
</g>
</g>
<g transform="matrix(NaN NaN NaN NaN 0 0)"  >
<g style=""   >
</g>
</g>
<g transform="matrix(3.18 0 0 4.2 676.25 722.1)" id="33130e7d-479a-49cf-9c3d-b2dd547aa8b5"  >
<path style="stroke: rgb(0,0,0); stroke-width: 0; stroke-dasharray: none; stroke-linecap: butt; stroke-dashoffset: 0; stroke-linejoin: miter; stroke-miterlimit: 4; fill: rgb(27,115,219); fill-rule: nonzero; opacity: 1;" vector-effect="non-scaling-stroke"  transform=" translate(-50, -50)" d="M 14.148 44.105 L 18.091 40.162 C 20.01 38.242 23.176000000000002 38.242 25.096 40.162 L 42.164 57.230999999999995 L 74.904 24.440999999999995 C 76.823 22.521999999999995 79.98899999999999 22.521999999999995 81.90899999999999 24.440999999999995 L 85.851 28.383999999999997 C 87.771 30.302999999999997 87.771 33.415 85.851 35.334999999999994 L 45.641 75.54499999999999 L 45.537 75.64899999999999 L 45.433 75.75299999999999 L 45.329 75.80499999999999 L 45.277 75.90899999999999 L 45.173 75.961 L 45.069 76.065 L 44.965 76.117 L 44.861000000000004 76.16900000000001 L 44.757000000000005 76.27400000000002 L 44.653000000000006 76.32400000000001 L 44.54900000000001 76.37800000000001 L 44.44500000000001 76.43000000000002 L 44.34100000000001 76.48200000000003 L 44.23700000000001 76.53400000000003 L 44.08000000000001 76.58600000000004 L 43.97600000000001 76.63800000000005 L 43.872000000000014 76.69000000000005 L 43.768000000000015 76.74200000000006 L 43.664000000000016 76.74200000000006 L 43.56000000000002 76.79400000000007 L 43.405000000000015 76.84700000000007 L 43.301000000000016 76.84700000000007 L 43.19700000000002 76.89900000000007 L 42.93800000000002 76.89900000000007 L 42.83400000000002 76.95100000000008 L 42.62600000000002 76.95100000000008 L 42.47100000000002 77.00300000000009 L 41.795000000000016 77.00300000000009 L 41.640000000000015 76.95100000000008 L 41.432000000000016 76.95100000000008 L 41.32800000000002 76.89900000000007 L 41.06900000000002 76.89900000000007 L 40.96500000000002 76.84700000000007 L 40.86100000000002 76.84700000000007 L 40.70600000000002 76.79400000000007 L 40.60200000000002 76.74200000000006 L 40.49800000000002 76.74200000000006 L 40.39400000000002 76.69000000000005 L 40.29000000000002 76.63800000000005 L 40.185000000000024 76.58600000000004 L 40.081000000000024 76.53400000000003 L 40.029000000000025 76.53400000000003 C 39.563000000000024 76.32500000000003 39.096000000000025 75.96200000000003 38.630000000000024 75.54800000000003 L 14.140000000000025 51.059000000000026 C 12.229 49.137 12.229 46.025 14.148 44.105 z" stroke-linecap="round" />
</g>
<g transform="matrix(NaN NaN NaN NaN 0 0)"  >
<g style=""   >
</g>
</g>
<g transform="matrix(NaN NaN NaN NaN 0 0)"  >
<g style=""   >
</g>
</g>
<g transform="matrix(NaN NaN NaN NaN 0 0)"  >
<g style=""   >
</g>
</g>
<g transform="matrix(NaN NaN NaN NaN 0 0)"  >
<g style=""   >
</g>
</g>
<g transform="matrix(NaN NaN NaN NaN 0 0)"  >
<g style=""   >
</g>
</g>
<g transform="matrix(NaN NaN NaN NaN 0 0)"  >
<g style=""   >
</g>
</g>
<g transform="matrix(NaN NaN NaN NaN 0 0)"  >
<g style=""   >
</g>
</g>
<g transform="matrix(NaN NaN NaN NaN 0 0)"  >
<g style=""   >
</g>
</g>
<g transform="matrix(NaN NaN NaN NaN 0 0)"  >
<g style=""   >
</g>
</g>
<g transform="matrix(NaN NaN NaN NaN 0 0)"  >
<g style=""   >
</g>
</g>
</svg>